<?xml version="1.0" encoding="UTF-8"?>
<svg version="1.1" xmlns="http://www.w3.org/2000/svg" width="48" height="48">
<path d="M0 0 C1.58206057 0.00667536 3.16410534 0.0186375 4.74609375 0.03515625 C5.55240234 0.03966797 6.35871094 0.04417969 7.18945312 0.04882812 C9.18753131 0.06065107 11.18557158 0.07858711 13.18359375 0.09765625 C13.18359375 1.08765625 13.18359375 2.07765625 13.18359375 3.09765625 C11.79333984 3.18853516 11.79333984 3.18853516 10.375 3.28125 C9.17746094 3.36503906 7.97992187 3.44882812 6.74609375 3.53515625 C5.55113281 3.61636719 4.35617188 3.69757812 3.125 3.78125 C0.29789131 3.77421739 0.29789131 3.77421739 -0.81640625 5.09765625 C-0.91464562 6.76194676 -0.94614256 8.43047556 -0.94140625 10.09765625 C-0.94398437 11.00515625 -0.9465625 11.91265625 -0.94921875 12.84765625 C-1.06814404 15.06732236 -1.06814404 15.06732236 0.18359375 16.09765625 C1.51403 16.19602835 2.84952719 16.22844217 4.18359375 16.23046875 C4.98796875 16.23175781 5.79234375 16.23304687 6.62109375 16.234375 C7.88953125 16.22857422 7.88953125 16.22857422 9.18359375 16.22265625 C10.02921875 16.22652344 10.87484375 16.23039062 11.74609375 16.234375 C12.55046875 16.23308594 13.35484375 16.23179688 14.18359375 16.23046875 C15.29734375 16.22877686 15.29734375 16.22877686 16.43359375 16.22705078 C18.21185186 16.28707841 18.21185186 16.28707841 19.18359375 15.09765625 C19.93740108 8.35554351 19.93740108 8.35554351 17.18359375 2.47265625 C16.52359375 2.01890625 15.86359375 1.56515625 15.18359375 1.09765625 C16.18359375 0.09765625 16.18359375 0.09765625 19.18359375 -0.02734375 C22.18359375 0.09765625 22.18359375 0.09765625 23.18359375 1.09765625 C23.25678996 3.79420479 23.27601912 6.46457083 23.24609375 9.16015625 C23.24158203 9.91876953 23.23707031 10.67738281 23.23242188 11.45898438 C23.22060055 13.33857496 23.20266453 15.21812524 23.18359375 17.09765625 C24.17359375 17.09765625 25.16359375 17.09765625 26.18359375 17.09765625 C26.18359375 18.08765625 26.18359375 19.07765625 26.18359375 20.09765625 C14.96359375 20.09765625 3.74359375 20.09765625 -7.81640625 20.09765625 C-7.81640625 19.10765625 -7.81640625 18.11765625 -7.81640625 17.09765625 C-6.82640625 17.09765625 -5.83640625 17.09765625 -4.81640625 17.09765625 C-4.82800781 15.95425781 -4.83960938 14.81085937 -4.8515625 13.6328125 C-4.86093913 12.14192871 -4.87003946 10.65104316 -4.87890625 9.16015625 C-4.88728516 8.40541016 -4.89566406 7.65066406 -4.90429688 6.87304688 C-4.91293066 4.94771312 -4.86864958 3.02230044 -4.81640625 1.09765625 C-3.81640625 0.09765625 -3.81640625 0.09765625 0 0 Z " fill="#FFFFFF" transform="translate(14.81640625,23.90234375)"/>
<path d="M0 0 C0 1.32 0 2.64 0 4 C-1.7015625 4.2165625 -1.7015625 4.2165625 -3.4375 4.4375 C-6.80777201 4.61171478 -6.80777201 4.61171478 -8 6 C-8.23075082 7.34747084 -8.41153063 8.70377565 -8.5625 10.0625 C-8.706875 11.361875 -8.85125 12.66125 -9 14 C-7.700625 13.855625 -6.40125 13.71125 -5.0625 13.5625 C-4.33160156 13.48128906 -3.60070312 13.40007813 -2.84765625 13.31640625 C-0.98859771 13.18113386 -0.98859771 13.18113386 0 12 C0.23192865 10.48530552 0.41215238 8.96245438 0.5625 7.4375 C0.64628906 6.61121094 0.73007812 5.78492188 0.81640625 4.93359375 C0.87699219 4.29550781 0.93757813 3.65742187 1 3 C1.99 3 2.98 3 4 3 C5.61588379 6.23176757 5.57451407 9.50615283 5 13 C3 16 3 16 0 18 C-2.80730687 18.39956124 -5.14153994 18.24224238 -8 18 C-8.33 17.01 -8.66 16.02 -9 15 C-9.99 15 -10.98 15 -12 15 C-13.61588379 11.76823243 -13.57451407 8.49384717 -13 5 C-9.30474011 -0.54288984 -6.16029988 -0.52205931 0 0 Z " fill="#FFFFFF" transform="translate(28,4)"/>
<path d="M0 0 C0.66 0 1.32 0 2 0 C1.67 3.3 1.34 6.6 1 10 C-0.65 9.67 -2.3 9.34 -4 9 C-4.33 9.99 -4.66 10.98 -5 12 C-5.66 12 -6.32 12 -7 12 C-6.67 8.7 -6.34 5.4 -6 2 C-4.35 2.33 -2.7 2.66 -1 3 C-0.67 2.01 -0.34 1.02 0 0 Z " fill="#FFFFFF" transform="translate(43,4)"/>
<path d="M0 0 C0.99 0.33 1.98 0.66 3 1 C3 1.66 3 2.32 3 3 C4.65 2.67 6.3 2.34 8 2 C8.33 5.3 8.66 8.6 9 12 C8.01 11.67 7.02 11.34 6 11 C6 10.34 6 9.68 6 9 C4.35 9.33 2.7 9.66 1 10 C0.67 6.7 0.34 3.4 0 0 Z " fill="#FFFFFF" transform="translate(3,4)"/>
<path d="M0 0 C1.32 0 2.64 0 4 0 C4 1.32 4 2.64 4 4 C2.68 4 1.36 4 0 4 C0 2.68 0 1.36 0 0 Z " fill="#FFFFFF" transform="translate(22,32)"/>
</svg>
